<mxfile host="app.diagrams.net" modified="2023-07-25T17:55:22.314Z" agent="Mozilla/5.0 (Windows NT 10.0; Win64; x64) AppleWebKit/537.36 (KHTML, like Gecko) Chrome/115.0.0.0 Safari/537.36 Edg/115.0.1901.183" etag="N-Uaag1ZT97LfWz27gKm" version="21.6.5" type="github">
  <diagram name="Страница 1" id="tW_O9fYonxcFtB0Huxje">
    <mxGraphModel dx="1236" dy="573" grid="1" gridSize="10" guides="1" tooltips="1" connect="1" arrows="1" fold="1" page="1" pageScale="1" pageWidth="827" pageHeight="1169" math="0" shadow="0">
      <root>
        <mxCell id="0" />
        <mxCell id="1" parent="0" />
        <mxCell id="18pz6FFHnumT67wqjprC-15" value="" style="edgeStyle=orthogonalEdgeStyle;rounded=0;orthogonalLoop=1;jettySize=auto;html=1;" edge="1" parent="1" source="18pz6FFHnumT67wqjprC-1" target="18pz6FFHnumT67wqjprC-2">
          <mxGeometry relative="1" as="geometry" />
        </mxCell>
        <mxCell id="18pz6FFHnumT67wqjprC-1" value="Start" style="rounded=1;whiteSpace=wrap;html=1;" vertex="1" parent="1">
          <mxGeometry x="320" y="20" width="120" height="40" as="geometry" />
        </mxCell>
        <mxCell id="18pz6FFHnumT67wqjprC-16" value="" style="edgeStyle=orthogonalEdgeStyle;rounded=0;orthogonalLoop=1;jettySize=auto;html=1;" edge="1" parent="1" source="18pz6FFHnumT67wqjprC-2" target="18pz6FFHnumT67wqjprC-4">
          <mxGeometry relative="1" as="geometry" />
        </mxCell>
        <mxCell id="18pz6FFHnumT67wqjprC-2" value="Number a" style="rounded=0;whiteSpace=wrap;html=1;" vertex="1" parent="1">
          <mxGeometry x="320" y="120" width="120" height="30" as="geometry" />
        </mxCell>
        <mxCell id="18pz6FFHnumT67wqjprC-3" value="Number b" style="rounded=0;whiteSpace=wrap;html=1;" vertex="1" parent="1">
          <mxGeometry x="320" y="200" width="120" height="30" as="geometry" />
        </mxCell>
        <mxCell id="18pz6FFHnumT67wqjprC-8" value="" style="edgeStyle=orthogonalEdgeStyle;rounded=0;orthogonalLoop=1;jettySize=auto;html=1;" edge="1" parent="1" source="18pz6FFHnumT67wqjprC-4" target="18pz6FFHnumT67wqjprC-5">
          <mxGeometry relative="1" as="geometry" />
        </mxCell>
        <mxCell id="18pz6FFHnumT67wqjprC-23" value="" style="edgeStyle=orthogonalEdgeStyle;rounded=0;orthogonalLoop=1;jettySize=auto;html=1;" edge="1" parent="1" source="18pz6FFHnumT67wqjprC-4" target="18pz6FFHnumT67wqjprC-20">
          <mxGeometry relative="1" as="geometry" />
        </mxCell>
        <mxCell id="18pz6FFHnumT67wqjprC-4" value="number a&amp;gt;b" style="rhombus;whiteSpace=wrap;html=1;" vertex="1" parent="1">
          <mxGeometry x="320" y="260" width="120" height="80" as="geometry" />
        </mxCell>
        <mxCell id="18pz6FFHnumT67wqjprC-5" value="a" style="shape=document;whiteSpace=wrap;html=1;boundedLbl=1;" vertex="1" parent="1">
          <mxGeometry x="460" y="350" width="120" height="80" as="geometry" />
        </mxCell>
        <mxCell id="18pz6FFHnumT67wqjprC-7" value="End" style="rounded=1;whiteSpace=wrap;html=1;" vertex="1" parent="1">
          <mxGeometry x="320" y="810" width="120" height="40" as="geometry" />
        </mxCell>
        <mxCell id="18pz6FFHnumT67wqjprC-11" value="yes" style="text;html=1;strokeColor=none;fillColor=none;align=center;verticalAlign=middle;whiteSpace=wrap;rounded=0;" vertex="1" parent="1">
          <mxGeometry x="440" y="270" width="60" height="30" as="geometry" />
        </mxCell>
        <mxCell id="18pz6FFHnumT67wqjprC-12" value="no" style="text;html=1;strokeColor=none;fillColor=none;align=center;verticalAlign=middle;whiteSpace=wrap;rounded=0;" vertex="1" parent="1">
          <mxGeometry x="330" y="340" width="60" height="30" as="geometry" />
        </mxCell>
        <mxCell id="18pz6FFHnumT67wqjprC-19" value="" style="endArrow=classic;html=1;rounded=0;exitX=0.473;exitY=0.933;exitDx=0;exitDy=0;exitPerimeter=0;entryX=1;entryY=0.5;entryDx=0;entryDy=0;" edge="1" parent="1" source="18pz6FFHnumT67wqjprC-5" target="18pz6FFHnumT67wqjprC-7">
          <mxGeometry width="50" height="50" relative="1" as="geometry">
            <mxPoint x="390" y="320" as="sourcePoint" />
            <mxPoint x="460" y="470" as="targetPoint" />
          </mxGeometry>
        </mxCell>
        <mxCell id="18pz6FFHnumT67wqjprC-26" value="" style="edgeStyle=orthogonalEdgeStyle;rounded=0;orthogonalLoop=1;jettySize=auto;html=1;" edge="1" parent="1" source="18pz6FFHnumT67wqjprC-20" target="18pz6FFHnumT67wqjprC-25">
          <mxGeometry relative="1" as="geometry" />
        </mxCell>
        <mxCell id="18pz6FFHnumT67wqjprC-30" value="" style="edgeStyle=orthogonalEdgeStyle;rounded=0;orthogonalLoop=1;jettySize=auto;html=1;" edge="1" parent="1" source="18pz6FFHnumT67wqjprC-20" target="18pz6FFHnumT67wqjprC-29">
          <mxGeometry relative="1" as="geometry" />
        </mxCell>
        <mxCell id="18pz6FFHnumT67wqjprC-20" value="number b&amp;gt;a" style="rhombus;whiteSpace=wrap;html=1;" vertex="1" parent="1">
          <mxGeometry x="315" y="380" width="130" height="80" as="geometry" />
        </mxCell>
        <mxCell id="18pz6FFHnumT67wqjprC-25" value="b" style="shape=document;whiteSpace=wrap;html=1;boundedLbl=1;" vertex="1" parent="1">
          <mxGeometry x="120" y="510" width="120" height="80" as="geometry" />
        </mxCell>
        <mxCell id="18pz6FFHnumT67wqjprC-28" value="yes" style="text;html=1;strokeColor=none;fillColor=none;align=center;verticalAlign=middle;whiteSpace=wrap;rounded=0;" vertex="1" parent="1">
          <mxGeometry x="250" y="390" width="60" height="30" as="geometry" />
        </mxCell>
        <mxCell id="18pz6FFHnumT67wqjprC-36" value="" style="edgeStyle=orthogonalEdgeStyle;rounded=0;orthogonalLoop=1;jettySize=auto;html=1;" edge="1" parent="1" source="18pz6FFHnumT67wqjprC-29" target="18pz6FFHnumT67wqjprC-33">
          <mxGeometry relative="1" as="geometry" />
        </mxCell>
        <mxCell id="18pz6FFHnumT67wqjprC-29" value="number a=b" style="rhombus;whiteSpace=wrap;html=1;" vertex="1" parent="1">
          <mxGeometry x="320" y="530" width="120" height="80" as="geometry" />
        </mxCell>
        <mxCell id="18pz6FFHnumT67wqjprC-31" value="no" style="text;html=1;strokeColor=none;fillColor=none;align=center;verticalAlign=middle;whiteSpace=wrap;rounded=0;" vertex="1" parent="1">
          <mxGeometry x="330" y="480" width="60" height="30" as="geometry" />
        </mxCell>
        <mxCell id="18pz6FFHnumT67wqjprC-38" value="" style="edgeStyle=orthogonalEdgeStyle;rounded=0;orthogonalLoop=1;jettySize=auto;html=1;" edge="1" parent="1" source="18pz6FFHnumT67wqjprC-33" target="18pz6FFHnumT67wqjprC-7">
          <mxGeometry relative="1" as="geometry" />
        </mxCell>
        <mxCell id="18pz6FFHnumT67wqjprC-33" value="non" style="shape=document;whiteSpace=wrap;html=1;boundedLbl=1;" vertex="1" parent="1">
          <mxGeometry x="320" y="680" width="120" height="80" as="geometry" />
        </mxCell>
        <mxCell id="18pz6FFHnumT67wqjprC-37" value="yes" style="text;html=1;strokeColor=none;fillColor=none;align=center;verticalAlign=middle;whiteSpace=wrap;rounded=0;" vertex="1" parent="1">
          <mxGeometry x="330" y="620" width="60" height="30" as="geometry" />
        </mxCell>
        <mxCell id="18pz6FFHnumT67wqjprC-39" value="" style="endArrow=classic;html=1;rounded=0;exitX=0.493;exitY=0.927;exitDx=0;exitDy=0;exitPerimeter=0;entryX=0;entryY=0.5;entryDx=0;entryDy=0;" edge="1" parent="1" source="18pz6FFHnumT67wqjprC-25" target="18pz6FFHnumT67wqjprC-7">
          <mxGeometry width="50" height="50" relative="1" as="geometry">
            <mxPoint x="390" y="860" as="sourcePoint" />
            <mxPoint x="440" y="810" as="targetPoint" />
            <Array as="points" />
          </mxGeometry>
        </mxCell>
      </root>
    </mxGraphModel>
  </diagram>
</mxfile>
